<?xml version="1.0" encoding="utf-8"?>
<!-- Generator: Adobe Illustrator 26.0.3, SVG Export Plug-In . SVG Version: 6.00 Build 0)  -->
<svg version="1.2" baseProfile="tiny" id="Layer_1" xmlns="http://www.w3.org/2000/svg" xmlns:xlink="http://www.w3.org/1999/xlink"
	 x="0px" y="0px" viewBox="0 0 40 40" overflow="visible" xml:space="preserve">
<path fill="none" stroke="#000000" stroke-width="5" stroke-miterlimit="10" d="M20.04,0"/>
<path fill="#00ACEC" d="M2.19,0h0.72C4.1,0,5.06,0.96,5.06,2.15v10.16c0,1,0.69,1.87,1.66,2.09l31.65,7.34
	c0.97,0.23,1.66,1.09,1.66,2.09v14.02c0,1.19-0.96,2.15-2.15,2.15h-0.65c-1.19,0-2.15-0.96-2.15-2.15l0.01-10.17
	c0-1-0.69-1.87-1.66-2.1L1.7,18.24c-0.97-0.23-1.66-1.09-1.66-2.09V2.15C0.04,0.96,1,0,2.19,0z"/>
<path fill="#D35B30" d="M20.2,40h-1.09c-1.1,0-1.99-0.89-1.99-1.99V1.99c0-1.1,0.89-1.99,1.99-1.99h1.09c1.1,0,1.99,0.89,1.99,1.99
	v36.02C22.19,39.11,21.3,40,20.2,40z"/>
<path fill="#39673D" d="M37.89,0l-0.72,0c-1.19,0-2.15,0.96-2.15,2.15v10.16c0,1-0.69,1.87-1.66,2.09L1.7,21.74
	c-0.97,0.23-1.66,1.09-1.66,2.09v14.02C0.04,39.04,1,40,2.19,40h0.65c1.19,0,2.15-0.96,2.15-2.15L4.97,27.68c0-1,0.69-1.87,1.66-2.1
	l31.74-7.35c0.97-0.23,1.66-1.09,1.66-2.09V2.15C40.04,0.96,39.08,0,37.89,0z"/>
<circle fill="#FFFFFF" cx="2.57" cy="2.37" r="1.84"/>
<circle fill="#FFFFFF" cx="37.57" cy="37.22" r="1.84"/>
<circle fill="#FFFFFF" cx="19.66" cy="37.22" r="1.84"/>
<circle fill="#FFFFFF" cx="2.57" cy="37.22" r="1.84"/>
<circle fill="#FFFFFF" cx="37.57" cy="2.37" r="1.84"/>
<circle fill="#FFFFFF" cx="19.66" cy="2.37" r="1.84"/>
<circle fill="#FFFFFF" cx="19.66" cy="20" r="1.84"/>
<g>
</g>
<g>
</g>
<g>
</g>
<g>
</g>
<g>
</g>
<g>
</g>
</svg>
